<?xml version="1.0" standalone="no"?><!DOCTYPE svg PUBLIC "-//W3C//DTD SVG 1.1//EN" "http://www.w3.org/Graphics/SVG/1.1/DTD/svg11.dtd"><svg t="1505978352099" class="icon" style="" viewBox="0 0 1024 1024" version="1.1" xmlns="http://www.w3.org/2000/svg" p-id="2360" xmlns:xlink="http://www.w3.org/1999/xlink" width="200" height="200"><defs><style type="text/css"></style></defs><path d="M512 102.677521c-226.062666 0-409.322479 183.259814-409.322479 409.322479s183.259814 409.322479 409.322479 409.322479 409.322479-183.259814 409.322479-409.322479S738.062666 102.677521 512 102.677521zM512 787.41877c-35.795251-1.882883-54.642504-16.949021-56.495712-45.196365 1.854231-30.101575 20.700461-47.050596 56.495712-50.846038 35.751249 3.795443 55.524594 20.744463 59.32106 50.846038C567.524594 770.46975 547.751249 785.534863 512 787.41877zM571.32106 298.726615c-1.898233 7.532557-1.898233 12.270465 0 14.123672l-33.898041 290.954605c-1.898233 32.04381-10.372232 46.167482-25.423019 42.37204-15.09479 3.795443-23.569812-10.328229-25.423019-42.37204l-31.072693-290.954605c-3.795443-11.299347-5.649674-21.627577-5.649674-31.072693 0-26.364461 20.700461-41.400922 62.145385-45.196365 39.547715 3.795443 60.248176 18.831904 62.145385 45.196365C574.145385 285.574061 573.174268 291.223734 571.32106 298.726615z" p-id="2361" fill="#ee5541" class="selected"></path></svg>